<svg width="720" height="600" viewBox="0 0 720 600" fill="none" xmlns="http://www.w3.org/2000/svg">
<rect width="720" height="600" rx="2" fill="#D9D9D9"/>
<path d="M437.386 136.993C436.989 127.17 433.779 137.93 435.583 140.826C435.646 140.914 435.731 140.991 435.833 141.053C435.935 141.115 436.051 141.16 436.175 141.186C436.299 141.213 436.428 141.22 436.556 141.207C436.683 141.193 436.806 141.16 436.917 141.11C437.063 141.037 437.186 140.94 437.278 140.826C437.584 139.56 437.584 138.259 437.278 136.993H437.386ZM403.261 176.967C400.844 176.967 374.8 175.917 374.944 177.478C373.321 177.109 374.944 186.279 374.944 187.358C374.944 188.437 377.722 188.267 378.551 188.324C385.766 188.749 405.75 188.636 407.41 188.636C409.069 188.636 408.095 177.847 408.059 177.819C408.023 176.627 404.127 176.996 403.261 176.967ZM406.4 187.273C400.231 187.273 382.628 186.932 376.784 187.273C376.351 184.15 375.918 181.027 375.521 177.904L406.508 178.387C406.255 181.339 406.4 184.32 406.4 187.273ZM357.954 191.077C358.092 191.065 358.221 191.016 358.319 190.939C358.417 190.862 358.479 190.76 358.495 190.652V183.412C358.495 182.333 356.294 182.134 356.366 183.242C356.366 185.74 356.763 188.21 357.016 190.68C357.018 190.765 357.05 190.848 357.106 190.921C357.163 190.993 357.243 191.053 357.338 191.093C357.433 191.133 357.54 191.153 357.648 191.15C357.757 191.148 357.862 191.123 357.954 191.077ZM436.015 173.844C435.875 173.86 435.744 173.909 435.641 173.985C435.538 174.061 435.467 174.161 435.438 174.27C435.438 175.463 434.464 182.276 436.268 182.418C438.504 182.418 436.989 175.803 436.773 174.213C436.73 174.087 436.628 173.979 436.487 173.91C436.347 173.842 436.178 173.818 436.015 173.844ZM436.989 189.63C436.629 187.671 435.366 187.813 435.222 190.481V193.661C435.222 195.705 438.324 197.323 436.989 189.63ZM436.196 202.377C434.248 202.519 435.763 209.588 436.015 210.894C436.015 211.377 437.134 211.49 437.17 210.894C437.17 208.339 437.17 205.784 437.386 203.229C437.393 203.108 437.366 202.988 437.307 202.876C437.248 202.764 437.158 202.664 437.045 202.583C436.931 202.502 436.796 202.441 436.65 202.406C436.503 202.37 436.348 202.36 436.196 202.377ZM437.17 147.185C437.17 146.589 435.835 146.674 435.691 147.185C435.547 147.696 434.464 156.838 436.989 154.567C437.532 152.115 437.532 149.609 436.989 147.157L437.17 147.185ZM435.186 162.403V168.081C435.186 169.217 437.458 169.046 437.386 168.081C437.386 166.207 437.386 164.333 437.025 162.403C436.809 159.393 435.258 159.223 435.186 162.403ZM435.691 217.878C435.149 220.339 435.149 222.856 435.691 225.317C435.691 225.941 437.025 225.828 437.17 225.317C437.314 224.806 438.216 215.607 435.691 217.878ZM532.294 139.435C534.342 139.698 536.227 140.475 537.669 141.649C538.463 142.302 539.473 141.167 536.515 139.293C531.609 136.255 529.553 139.037 532.294 139.435ZM529.661 150.422C532.871 149.712 530.202 144.46 529.228 148.52C529.12 148.86 528.795 150.621 529.661 150.422ZM532.114 168.28C542.936 168.45 539.725 155.22 537.669 158.059C532.907 164.447 524.827 163.084 524.25 163.737C523.673 164.39 527.027 168.223 532.114 168.28ZM538.21 159.535C540.627 167.371 529.913 169.784 525.657 164.447C528.107 164.536 530.546 164.131 532.742 163.272C534.939 162.412 536.821 161.126 538.21 159.535ZM436.737 127.511C436.879 127.459 437.002 127.381 437.098 127.283C437.693 124.807 437.693 122.265 437.098 119.788C437.098 119.334 436.052 119.192 435.871 119.788C435.307 122.262 435.222 124.789 435.619 127.283C435.737 127.423 435.916 127.523 436.123 127.565C436.329 127.607 436.548 127.588 436.737 127.511ZM516.025 157.094C516.747 159.649 525.26 156.867 517.793 156.583C518.262 152.913 519.242 149.295 520.715 145.794C521.292 144.261 518.154 144.942 516.314 155.135C516.073 155.769 515.975 156.432 516.025 157.094ZM356.475 198.147C356.551 200.656 356.828 203.16 357.304 205.642C357.304 205.762 357.365 205.878 357.473 205.963C357.582 206.048 357.728 206.096 357.881 206.096C358.035 206.096 358.181 206.048 358.29 205.963C358.398 205.878 358.459 205.762 358.459 205.642C359.685 193.008 356.475 197.976 356.475 198.147ZM511.011 145.056C509.712 146.419 509.965 148.889 511.408 147.895C512.851 146.901 511.913 144.091 511.011 145.056ZM356.691 227.787C354.923 230.853 358.892 241.982 358.711 229.746C358.675 227.787 357.521 226.396 356.691 227.787ZM356.763 220.15C356.763 220.746 358.134 220.661 358.278 220.15C358.423 219.639 359.469 210.497 356.98 212.74C356.366 215.191 356.293 217.707 356.763 220.178V220.15Z" fill="black"/>
<path d="M497.881 124.7C500.234 126.379 502.897 127.767 505.781 128.816C501.235 140.655 491.568 178.67 517.144 180.942C517.144 182.759 516.927 184.576 516.819 186.421C508.919 188.345 501.329 190.984 494.201 194.285C491.279 198.033 488.357 201.809 485.616 205.642C482.004 210.929 478.764 216.37 475.912 221.938C480.984 223.398 485.713 225.508 489.908 228.184C494.237 230.739 486.518 234.629 483.415 237.723C492.197 250.402 503.679 261.801 517.36 271.423C518.19 267.505 519.164 264.155 519.56 262.906C511.264 251.549 500.442 208.963 501.704 193.064C503.869 192.213 506.033 191.446 508.197 190.736C508.197 193.973 512.129 201.78 516.314 202.575C516.783 203.711 518.659 201.44 519.921 200.446C520.606 202.405 521.544 204.421 521.977 205.897C524.975 205.392 528.094 205.579 530.959 206.437C532.475 204.79 535.036 202.433 536.298 201.326C536.911 201.979 537.922 203.37 539.004 203.228C547.625 201.951 560.647 195.478 565.084 189.175C567.754 189.714 570.351 190.311 572.948 190.992C549.393 211.32 526.054 246.042 519.993 272.587C535.577 263.729 561.225 248.966 573.381 239.852C563.966 228.297 556.102 229.149 575.004 226.225C578.612 225.685 582.039 225.146 585.574 224.749C584.636 213.657 583.049 202.623 580.812 191.645C572.757 188.921 564.258 187.096 555.561 186.222C555.345 181.822 555.561 177.393 555.561 172.992C555.561 172.992 581.281 148.832 578.251 132.848C577.061 126.46 570.712 125.977 564.11 127.652C569.197 123.819 575.293 124.416 574.932 121.974C574.391 118.368 562.812 120.526 559.06 125.807C548.419 108.517 522.987 103.605 536.984 116.608C527.785 111.839 517.504 107.665 506.177 107.665C489.259 107.466 487.239 117.091 497.881 124.7ZM516.855 201.355C514.695 199.995 512.899 198.311 511.574 196.401C510.249 194.49 509.42 192.391 509.135 190.225C511.769 189.374 514.402 188.607 517.107 187.897C520.216 190.109 523.467 192.194 526.847 194.143C522.898 195.992 519.492 198.479 516.855 201.44V201.355ZM555.633 187.386C558.231 187.812 560.792 188.238 563.353 188.749C557.036 194.827 548.728 199.431 539.328 202.064C536.632 199.24 533.533 196.668 530.094 194.399C539.168 193.659 547.906 191.289 555.633 187.471V187.386ZM507.007 129.242C515.087 131.911 539.978 134.75 548.96 134.466C543.693 144.971 549.79 155.22 553.541 150.365C554.587 148.974 556.391 146.788 559.313 148.605C561.008 149.683 561.657 152.295 558.7 156.44C555.573 160.523 553.973 165.217 554.082 169.983C553.607 175.511 553.511 181.055 553.794 186.591C546.062 190.005 537.623 192.312 528.867 193.405L518.045 187.102C518.406 183.497 519.669 179.437 518.045 179.437C515.986 179.341 513.977 178.898 512.154 178.139C510.331 177.38 508.736 176.322 507.476 175.036C497.412 165.525 503.364 140.485 507.007 129.242Z" fill="black"/>
<path d="M509.207 141.053C510.076 140.518 511.074 140.128 512.141 139.909C513.208 139.689 514.321 139.643 515.412 139.775C515.567 139.76 515.713 139.706 515.826 139.62C515.939 139.534 516.013 139.422 516.037 139.3C516.062 139.178 516.035 139.053 515.961 138.944C515.887 138.835 515.77 138.748 515.628 138.696C509.135 137.504 507.079 142.444 509.207 141.053ZM522.157 207.373C519.271 218.578 516.398 229.802 513.536 241.045C515.193 247.261 517.609 253.336 520.75 259.187C523.593 252.432 526.88 245.799 530.598 239.313C529.733 231.42 529.228 212.143 529.624 208.537C527.397 207.45 524.743 207.037 522.157 207.373ZM261.061 136.964C264.091 136.652 258.789 122.769 259.727 134.863C259.835 135.602 259.727 137.106 261.061 136.964ZM259.763 254.417C259.763 255.269 259.474 258.164 261.206 257.994C264.236 257.682 259.186 244.878 259.763 254.417ZM261.602 168.734C261.568 168.622 261.487 168.523 261.373 168.452C261.258 168.381 261.117 168.342 260.971 168.342C260.825 168.342 260.684 168.381 260.569 168.452C260.455 168.523 260.374 168.622 260.34 168.734C259.769 171.198 259.696 173.718 260.123 176.2C260.224 176.362 260.402 176.485 260.619 176.544C260.835 176.602 261.072 176.591 261.278 176.513C261.413 176.453 261.535 176.376 261.638 176.286C262.213 173.788 262.201 171.228 261.602 168.734ZM259.871 270.94C260.087 272.104 262.143 272.019 262.071 269.918C261.747 263.275 259.835 263.161 259.799 266.455C259.655 267.948 259.655 269.447 259.799 270.94H259.871ZM259.763 186.024C259.612 187.261 259.734 188.51 260.123 189.714C260.265 189.888 260.484 190.014 260.738 190.067C260.992 190.119 261.262 190.095 261.494 189.998L261.855 189.714C261.855 189.43 261.855 180.487 260.232 182.333C259.402 183.213 259.763 184.973 259.763 186.024ZM261.35 223.244C261.337 223.176 261.307 223.112 261.261 223.053C261.216 222.995 261.156 222.945 261.085 222.905C261.015 222.865 260.935 222.837 260.85 222.822C260.765 222.807 260.678 222.806 260.592 222.818C260.454 222.83 260.325 222.879 260.227 222.956C260.129 223.034 260.067 223.135 260.051 223.244C260.051 224.436 259.041 231.25 260.845 231.392C263.081 231.619 261.566 224.862 261.35 223.244ZM261.242 209.503C261.242 209.382 261.181 209.267 261.073 209.181C260.964 209.096 260.818 209.048 260.665 209.048C260.511 209.048 260.365 209.096 260.256 209.181C260.148 209.267 260.087 209.382 260.087 209.503C258.861 222.165 262.071 217.168 262.071 216.998C261.997 214.488 261.719 211.985 261.242 209.503ZM261.711 196.187C261.711 195.563 260.376 195.676 260.232 196.187C260.087 196.698 259.041 205.84 261.53 203.569C262.133 201.116 262.194 198.6 261.711 196.131V196.187ZM259.835 239.455V242.55C259.835 244.594 262.937 246.212 261.602 238.518C261.242 236.644 259.979 236.871 259.835 239.455ZM466.352 353.813C460.846 352.87 455.479 351.481 450.336 349.668C450.589 354.154 450.877 358.497 451.166 362.813C460.689 362.614 465.306 361.592 466.352 353.87V353.813ZM600.941 370.961L601.878 357.929C593.401 358.549 584.888 358.815 576.375 358.724C579.874 369.626 587.089 370.677 600.941 370.961ZM616.596 548.289C614.035 508.372 612.7 400.402 614.288 356.765C611.041 357.163 607.506 357.504 603.826 357.788C601.337 423.086 600.219 482.991 605.45 549.056C609.192 549.199 612.942 548.941 616.596 548.289ZM357.665 280.593L196.996 278.606C190.503 278.606 183.901 278.293 177.372 278.606C176.615 278.606 176.723 279.543 177.372 279.599C185.344 280.196 203.597 280.224 212.579 280.366L357.484 282.297C358.891 282.297 359.108 280.593 357.665 280.593Z" fill="black"/>
<path d="M575.798 548.715C584.807 549.322 593.857 549.454 602.889 549.113C599.281 490.514 597.911 431.887 600.832 373.09C592.969 373.09 579.982 371.557 576.122 365.226C574.764 363.202 574.128 360.925 574.283 358.639C551.016 358.157 529.155 354.693 523.312 346.119C522.019 348.112 519.944 349.725 517.396 350.718C517.396 354.068 516.746 370.024 518.478 372.551C519.813 374.567 522.771 374.283 525.187 374.623C525.426 374.676 525.629 374.802 525.751 374.972C525.872 375.142 525.903 375.344 525.837 375.532C525.79 375.652 525.707 375.762 525.593 375.851C525.48 375.94 525.341 376.006 525.187 376.043C518.478 376.895 515.484 373.8 515.123 368.888C514.528 363.125 514.528 357.333 515.123 351.57C504.806 355.403 486.481 356.936 468.228 354.125C468.228 362.87 460.689 365.084 451.094 365.283C457.226 451.96 471.944 505.334 490.521 548.971C491.135 550.362 529.264 550.05 529.192 548.715C526.378 499.826 524.863 456.928 531.681 414.143L528.073 391.431C518.334 388.137 520.137 385.752 521.761 386.576L527.677 389.415C529.011 389.898 530.129 389.841 530.057 391.175C539.833 443.84 555.525 494.12 575.798 548.715ZM227.225 259.243C216.879 258.93 206.518 259.12 196.202 259.811C193.894 260.01 193.316 260.209 193.316 262.026C193.316 264.581 193.316 269.89 194.795 269.209C195.012 269.89 219.253 269.748 225.962 269.464C227.802 269.464 228.163 268.527 227.117 268.186C227.946 268.101 228.235 259.584 227.225 259.243ZM195.048 268.612C195.228 266.069 195.228 263.519 195.048 260.975C205.04 260.776 216.151 260.975 225.854 260.436C225.854 261.486 225.313 267.533 226.251 268.101C222.391 267.903 195.661 268.385 195.048 268.612Z" fill="black"/>
<path d="M583.157 192.497C585.682 201.988 587.345 211.608 588.136 221.285C588.749 228.184 590.047 226.424 575.546 228.468C572.732 228.865 569.955 229.376 567.141 229.66C568.692 231.137 579.334 241.017 575.005 241.357C569.161 247.49 529.661 270.117 519.381 274.631C518.839 277.47 518.443 280.111 518.226 282.893C517.73 282.909 517.243 283.005 516.796 283.176C516.349 283.347 515.952 283.589 515.629 283.887C515.665 280.557 516.027 277.235 516.711 273.95C499.757 264.496 483.632 243.174 481.035 237.837C479.809 235.338 486.266 231.903 488.25 230.37C483.921 227.531 472.81 223.783 473.351 222.392C477.23 213.32 482.5 204.654 489.043 196.585C484.967 198.546 480.973 200.61 477.067 202.774C475.552 157.065 475.588 109.937 472.089 64.4262H481.432C483.055 64.4262 482.947 61.1329 481.432 61.1329H471.692C449.363 58.0099 427.034 54.9153 404.813 51.2813C370.219 45.6032 335.012 38.6758 300.454 33.5939V30.2154C300.454 29.4772 296.63 29.3921 296.63 30.2154V33.3668C247.535 43.4171 197.826 51.8207 148.406 60.4231C142.086 61.2541 135.825 62.3439 129.649 63.6881L117.636 63.8868C116.302 63.8868 116.338 66.7259 117.636 66.7259H130.117C128.314 142.756 128.133 218.73 127.376 294.704C127.376 296.35 126.438 309.24 128.278 309.24C149.056 309.58 295.151 309.24 295.151 309.24C295.151 384.305 295.031 459.379 294.79 534.463C265.391 546.7 224.989 563.763 218.244 566.914C217.017 567.169 112.802 566.914 99.4194 567.169C98.6258 567.169 98.6258 568.362 99.4194 568.362C116.915 568.845 637.375 569.043 637.375 569.043C638.818 569.043 639.107 567.141 637.664 567.141H613.783C612.979 561.684 611.591 556.289 609.635 551.015C601.419 551.668 593.141 551.668 584.925 551.015C579.189 552.633 556.536 559.532 555.634 567.056H529.914C529.298 561.792 528.018 556.59 526.09 551.526C517.245 553.137 508.073 553.301 499.144 552.009C495.284 553.088 473.279 559.362 471.656 567.113H381.943C379.778 565.409 302.402 535.684 301.103 535.343V309.325H445.611C444.313 323.52 443.772 345.778 444.601 346.062C481.793 358.526 517.577 353.529 522.122 344.132C513.392 334.678 514.078 309.609 514.15 304.896C514.842 305.767 515.653 306.576 516.567 307.309C516.098 315.826 516.098 342.116 530.671 349.696C546.111 357.759 596.468 358.526 618.293 354.182C618.509 346.062 618.004 335.558 617.535 330.078C598.344 328.877 579.3 326.504 560.576 322.981C558.592 322.64 544.92 320.653 544.704 319.375C544.487 318.098 544.235 316.366 544.091 314.833L536.876 313.555C536.846 306.336 537.765 299.134 539.617 292.063L545.173 291.893C545.461 290.417 545.173 287.719 547.373 287.719C552.685 286.34 558.108 285.24 563.606 284.426C572.817 282.893 582.003 281.426 591.166 280.026C588.793 272.38 587.225 264.593 586.476 256.745C586.476 255.837 588.136 255.609 588.244 256.518C589.426 264.33 591.282 272.071 593.799 279.685C604.324 277.955 614.973 276.732 625.688 276.022C625.874 276.053 626.04 276.134 626.16 276.25C626.28 276.366 626.345 276.512 626.345 276.661C626.345 276.811 626.28 276.956 626.16 277.072C626.04 277.189 625.874 277.269 625.688 277.3C599.931 278.918 573.382 284.426 548.131 289.139C545.926 298.832 545.284 308.704 546.219 318.523C562.3 321.847 578.607 324.453 595.062 326.331C621.9 328.914 661.616 334.053 667.207 304.896C676.081 261.43 632.613 210.156 583.157 192.497ZM294.79 566.971H228.597C250.565 557.517 272.786 549.028 294.971 539.205L294.79 566.971ZM459.68 61.0761L300.959 62.3537C300.959 53.1267 300.706 45.3193 300.49 36.0355C351.894 45.3193 407.518 53.8365 459.68 61.0761ZM296.522 36.2342C296.306 45.4328 296.089 53.2687 295.945 62.4105C242.665 62.808 192.56 62.9215 139.28 63.6881C192.848 55.4548 296.522 36.2342 296.522 36.2342ZM371.409 567.141H300.742V539.488C321.701 548.943 349.188 559.106 371.409 566.999V567.141ZM469.636 230.143C455.207 253.764 448.389 281.473 445.756 307.621C341.144 307.621 234.513 305.634 130.19 307.423C130.803 301.262 129.649 291.098 129.721 284.483C130.442 211.859 133.508 139.69 133.148 66.953C176.002 66.953 468.987 64.5114 468.987 64.5114C470.971 107.552 474.83 202.008 475.083 204.052C454.593 215.584 436.163 229.229 420.288 244.622C427.11 245.596 433.846 246.914 440.453 248.569C440.674 248.644 440.849 248.783 440.943 248.958C441.037 249.132 441.043 249.328 440.958 249.505C440.877 249.663 440.727 249.793 440.535 249.871C440.343 249.95 440.122 249.971 439.912 249.931C426.24 247.376 376.207 239.029 353.337 240.988C352.796 240.988 352.904 241.726 353.084 242.607C350.949 242.263 348.757 242.186 346.591 242.379C340.278 235.679 333.605 228.184 322.675 233.862C317.805 226.651 276.033 163.765 274.409 163.652C272.389 161.324 270.044 163.652 271.379 165.611L318.094 239.711C314.486 242.152 313.945 245.928 317.011 246.723C315.136 249.789 317.733 253.423 319.031 252.998C317.625 258.676 328.338 263.928 333.136 263.218C333.785 264.183 336.743 269.152 338.006 269.095C338.701 269.524 339.563 269.75 340.445 269.735C341.328 269.721 342.177 269.466 342.849 269.015C343.52 268.563 343.972 267.943 344.128 267.259C344.284 266.575 344.135 265.869 343.705 265.262L346.735 266.54C345.87 267.676 345.365 268.272 345.617 268.499C360.515 282.183 397.526 299.133 411.703 300.864C423.174 302.255 436.665 302.539 443.411 301.035C446.513 277.669 453.62 250.215 467.941 229.32C467.994 229.232 468.07 229.153 468.163 229.088C468.256 229.023 468.364 228.973 468.481 228.942C468.599 228.91 468.723 228.897 468.847 228.903C468.971 228.91 469.092 228.935 469.203 228.979C469.32 229.021 469.424 229.082 469.51 229.157C469.595 229.232 469.66 229.32 469.701 229.416C469.742 229.512 469.757 229.613 469.746 229.714C469.734 229.815 469.697 229.912 469.636 230.001V230.143ZM334.29 247.83C334.059 247.486 333.718 247.195 333.301 246.986C332.883 246.777 332.404 246.657 331.909 246.638C332.313 246.439 332.657 246.173 332.919 245.859C333.18 245.546 333.353 245.192 333.425 244.821C334.795 245.985 335.192 245.218 334.795 244.821C332.92 242.692 331.188 236.786 329.673 237.326C328.266 236.928 323.937 238.064 321.557 237.894C320.619 237.894 319.897 237.411 320.619 236.616C323.343 234.279 327.097 232.848 331.116 232.613C336.455 233.351 343.056 240.392 345.87 243.572C349.008 250.158 343.705 260.237 341.541 261.912L333.93 250.244C334.266 249.907 334.478 249.503 334.542 249.077C334.605 248.651 334.518 248.22 334.29 247.83ZM318.995 237.723L272.353 164.418C272.353 162.715 273.904 164.191 274.59 165.071C278.63 171.459 321.484 234.629 321.484 234.629C320.783 234.948 320.19 235.396 319.756 235.935C319.323 236.474 319.062 237.088 318.995 237.723ZM320.186 240.108C322.314 239.228 328.41 237.78 329.925 239.938C330.106 240.619 330.286 241.272 330.431 241.954C328.043 241.607 325.579 241.796 323.321 242.499C321.063 243.202 319.102 244.39 317.661 245.928C315.46 243.941 317.625 241.102 320.186 240.108ZM318.021 247.745C319.356 244.906 327.076 241.556 330.575 243.231C334.074 244.906 329.601 246.07 328.952 246.78C326.825 246.893 324.786 247.49 323.083 248.498C321.38 249.506 320.085 250.882 319.356 252.458C318.586 251.855 318.051 251.09 317.814 250.255C317.578 249.42 317.65 248.549 318.021 247.745ZM325.994 248.512C327.509 248.058 335.12 246.61 332.595 249.789C328.988 250.045 325.921 252.203 327.725 254.985C329.24 257.313 330.791 259.641 332.378 261.941C322.17 261.061 314.631 251.834 325.994 248.512ZM328.519 252.827C328.882 252.292 329.396 251.83 330.021 251.476C330.646 251.122 331.366 250.885 332.126 250.783C333.461 252.827 342.515 266.086 342.515 267.136C342.515 268.187 339.557 269.067 338.908 268.101C335.252 263.086 331.765 257.994 328.446 252.827H328.519ZM342.118 262.65C347.709 259.414 349.333 249.392 347.709 243.316L353.661 243.998C354.516 251.461 352.412 258.949 347.637 265.433C346.483 264.865 342.587 263.502 342.046 262.65H342.118ZM535.794 310.148C530.924 309.921 526.018 310.716 520.751 308.274C516.855 306.457 512.851 302.596 514.15 298.991C515.593 300.524 516.314 299.189 515.773 298.707C514.786 297.861 514.112 296.818 513.826 295.691C513.539 294.565 513.652 293.398 514.15 292.319C515.34 294.221 516.495 293.114 516.062 292.517C514.294 289.934 513.897 285.306 518.118 284C517.793 290.53 526.884 291.467 526.234 289.678C526.234 289.678 522.627 277.272 526.703 277.896C528.687 282.098 531.393 291.268 537.525 292.546C536.128 298.346 535.524 304.247 535.722 310.148H535.794Z" fill="black"/>
<path d="M172.105 275C199.809 243.771 235.197 196.216 258.356 163.198C259.23 163.623 260.239 163.846 261.266 163.842C262.294 163.838 263.3 163.607 264.168 163.175C265.037 162.743 265.734 162.127 266.18 161.398C266.625 160.669 266.802 159.857 266.689 159.053C294.753 164.731 324.009 168.052 352.362 173.021C352.903 178.955 363.508 176.683 361.885 171.828C385.405 153.147 410.728 133.274 433.706 114.763L434.572 115.047C435.926 115.399 437.402 115.316 438.678 114.816C439.955 114.316 440.93 113.44 441.39 112.378C441.86 111.381 441.825 110.28 441.292 109.303C440.76 108.326 439.77 107.547 438.529 107.128C437.287 106.709 435.888 106.681 434.622 107.05C433.355 107.42 432.317 108.158 431.722 109.113C431.211 109.871 430.996 110.732 431.105 111.585C431.215 112.439 431.643 113.249 432.336 113.911C409.105 132.45 383.276 151.529 361.236 170.693C360.653 170.063 359.851 169.58 358.927 169.302C357.692 168.951 356.332 168.995 355.138 169.425C353.944 169.855 353.012 170.636 352.542 171.601C338.113 169.302 273.182 158.116 266.4 157.917C263.767 151.785 251.502 157.094 256.805 162.204C229.642 200.986 200.567 236.872 170.879 274.347C169.7 273.901 168.365 273.778 167.087 274C165.81 274.221 164.663 274.774 163.832 275.569C163 276.364 162.532 277.355 162.502 278.385C162.471 279.414 162.881 280.422 163.664 281.246C168.462 286.612 178.599 279.628 172.105 275ZM436.087 88.019C434.753 88.1609 435.222 89.6088 435.294 90.3186C436.809 102.3 439.334 87.7634 436.087 88.019Z" fill="black"/>
<path d="M357.701 142.927C355.501 142.756 356.98 149.513 357.196 151.103C357.209 151.171 357.24 151.235 357.285 151.294C357.33 151.352 357.39 151.402 357.461 151.442C357.531 151.482 357.612 151.51 357.696 151.525C357.781 151.54 357.869 151.541 357.954 151.529C358.092 151.517 358.221 151.468 358.319 151.391C358.418 151.313 358.48 151.212 358.495 151.103C358.459 149.882 359.505 143.182 357.701 142.927ZM358.459 164.958C359.685 152.324 356.475 157.292 356.475 157.463C356.553 159.963 356.83 162.457 357.305 164.929C357.3 165.05 357.356 165.167 357.461 165.255C357.566 165.343 357.711 165.394 357.864 165.398C358.017 165.402 358.166 165.357 358.277 165.275C358.389 165.192 358.454 165.078 358.459 164.958ZM357.341 116.126C356.006 116.268 356.475 117.716 356.583 118.425C358.206 130.406 360.587 115.87 357.341 116.126ZM435.403 99.3185C434.465 106.274 437.819 106.899 437.387 101.76C437.387 100.653 436.954 99.5456 436.773 98.4384C436.773 97.9557 435.619 97.5583 435.403 99.3185ZM400.195 102.725C406.905 103.265 421.262 102.924 422.128 102.896C427.539 102.896 426.998 102.896 426.601 98.8075C426.601 96.6498 426.24 94.2933 424.977 94.5772L397.887 94.123C395.758 93.6687 396.552 96.451 396.66 98.2396C396.877 101.476 395.434 102.328 400.195 102.725ZM398.428 95.3154L424.869 95.94L425.086 101.391H398.392L398.428 95.3154ZM356.98 95.8264C357.03 95.9532 357.141 96.0597 357.289 96.1233C357.437 96.1869 357.611 96.2026 357.774 96.1671C357.88 96.1424 357.977 96.0989 358.058 96.0398C358.14 95.9807 358.203 95.9077 358.243 95.8264C358.794 93.3604 358.867 90.8429 358.459 88.3597C358.413 88.2736 358.344 88.1959 358.258 88.1316C358.172 88.0672 358.07 88.0175 357.958 87.9856C357.846 87.9536 357.727 87.9401 357.609 87.9458C357.49 87.9516 357.374 87.9765 357.269 88.019C357.138 88.0717 357.026 88.1499 356.944 88.2461C356.42 90.7275 356.42 93.2599 356.944 95.7413L356.98 95.8264ZM357.665 102.271C355.898 102.271 356.583 104.968 356.655 105.735C357.305 116.154 361.056 102.328 357.665 102.271ZM213.229 154.709C213.229 155.135 214.203 155.191 215.682 155.191C221.995 155.191 244.793 156.611 245.19 154.624C246.489 154.624 246.02 148.463 245.839 147.27C247.462 144.233 216.62 146.476 214.384 146.334C213.374 146.106 212.905 146.987 213.085 148.293C213.374 150.507 213.085 153.687 213.229 154.709ZM214.78 147.554C224.52 147.554 234.873 147.753 244.577 147.554V154.113C234.404 154.425 224.556 154.113 214.636 154.34C214.83 152.081 214.878 149.817 214.78 147.554ZM166.371 96.3942C165.829 118.624 166.046 234.856 166.118 270.742C166.118 271.877 168.391 272.019 168.391 270.742C168.391 247.688 168.715 131.343 167.777 96.2239C168.86 96.2239 172.647 96.0819 173.405 95.1167C174.162 94.1514 168.86 83.1074 168.066 81.4607C167.777 80.8929 166.839 81.2904 166.695 81.6878C164.964 86.202 163.088 90.6309 161.573 95.2018C161.14 96.593 165.252 96.4226 166.371 96.3942ZM358.711 134.665V131.542C358.711 129.526 355.609 127.88 356.944 135.602C357.305 137.504 358.459 137.504 358.711 134.665ZM259.836 150.024C260.052 151.188 262.144 151.075 262.036 148.974C261.711 142.33 259.799 142.217 259.763 145.539C259.619 147.032 259.619 148.531 259.763 150.024H259.836ZM261.062 96.8485C263.046 96.7065 261.495 89.6372 261.062 88.3313C261.062 87.8486 259.944 87.7351 259.908 88.3313C259.908 90.8864 259.836 93.4416 259.691 95.9968C259.685 96.1306 259.719 96.2637 259.79 96.3852C259.862 96.5067 259.969 96.6133 260.102 96.6963C260.236 96.7792 260.392 96.8363 260.559 96.8627C260.726 96.8892 260.898 96.8843 261.062 96.8485ZM259.799 118.482V121.662C259.799 123.678 262.902 125.268 261.567 117.602C261.062 115.643 259.944 115.814 259.799 118.482ZM260.809 110.391C263.046 110.561 261.531 103.804 261.314 102.186C261.314 102.05 261.246 101.92 261.124 101.825C261.003 101.729 260.837 101.675 260.665 101.675C260.493 101.675 260.328 101.729 260.206 101.825C260.084 101.92 260.016 102.05 260.016 102.186C260.016 103.435 259.006 110.249 260.809 110.391Z" fill="black"/>
</svg>
